<?xml version="1.0" standalone="no"?>
<!DOCTYPE svg PUBLIC "-//W3C//DTD SVG 20010904//EN"
 "http://www.w3.org/TR/2001/REC-SVG-20010904/DTD/svg10.dtd">
<svg version="1.0" xmlns="http://www.w3.org/2000/svg"
 width="1024.000000pt" height="1024.000000pt" viewBox="0 0 1024.000000 1024.000000"
 preserveAspectRatio="xMidYMid meet">

<g transform="translate(0.000000,1024.000000) scale(0.100000,-0.100000)"
fill="#000000" stroke="none">
<path d="M4570 8244 c-199 -14 -385 -34 -545 -59 -94 -14 -135 -22 -330 -59
-228 -43 -658 -171 -935 -279 -256 -99 -771 -350 -871 -424 -127 -94 -205
-216 -245 -381 -20 -84 -19 -348 2 -420 21 -71 57 -144 100 -200 34 -45 116
-122 130 -122 4 0 15 -6 23 -13 54 -45 210 -66 281 -38 19 8 109 46 200 84
302 128 627 236 925 307 147 35 165 38 285 60 63 11 140 25 170 31 129 24 381
52 620 70 190 14 1001 7 1110 -9 41 -6 116 -16 165 -22 139 -15 236 -29 285
-40 25 -5 79 -17 120 -26 98 -21 157 -51 186 -94 23 -33 24 -43 24 -190 1
-308 57 -498 222 -744 53 -78 205 -230 287 -285 113 -77 283 -150 426 -182 94
-22 391 -19 480 4 236 62 411 154 578 307 59 55 178 202 216 270 64 112 119
263 145 396 37 189 9 497 -60 651 -8 17 -14 35 -14 39 0 24 -98 200 -150 268
-164 218 -338 352 -680 525 -462 234 -946 391 -1495 485 -538 92 -1152 126
-1655 90z m3348 -1321 l-3 -237 -25 -13 c-14 -7 -50 -24 -82 -37 l-56 -25 -4
-313 -4 -313 -26 -57 c-37 -79 -105 -149 -186 -189 -64 -32 -72 -34 -177 -34
-103 0 -113 2 -163 29 -67 37 -117 92 -150 165 -21 46 -26 70 -25 139 0 49 5
88 12 95 6 6 11 17 11 25 0 8 14 38 31 65 l31 51 -1 266 c-2 209 1 269 11 277
7 6 85 41 173 77 88 37 185 78 215 91 30 14 111 48 180 76 69 28 145 62 170
75 25 13 51 23 58 24 10 0 12 -51 10 -237z"/>
<path d="M4475 5645 c-404 -24 -751 -76 -1155 -175 -275 -68 -737 -226 -970
-332 -36 -16 -108 -48 -160 -70 -206 -87 -310 -147 -391 -228 -81 -80 -107
-122 -145 -234 -21 -59 -24 -89 -24 -200 1 -183 28 -261 140 -395 79 -95 186
-150 332 -170 133 -18 89 -35 1173 441 94 42 259 114 368 162 109 47 221 97
250 110 29 13 165 72 302 131 293 126 482 208 545 237 25 11 81 36 124 55 84
36 99 42 211 93 39 18 107 47 152 66 45 19 120 52 168 74 47 22 89 40 92 40 3
0 40 16 82 36 42 20 110 51 151 69 41 18 107 47 145 65 102 47 167 76 188 83
26 9 13 24 -25 30 -18 3 -67 13 -108 22 -409 89 -917 121 -1445 90z"/>
<path d="M6305 4839 c-106 -25 -180 -86 -228 -186 l-32 -68 -3 -935 c-2 -691
0 -949 9 -990 35 -165 172 -291 319 -293 138 -2 285 105 332 241 18 52 25
1881 7 1962 -41 194 -218 312 -404 269z"/>
<path d="M7550 4831 c-96 -30 -177 -96 -219 -179 -40 -79 -42 -129 -39 -1087
l3 -920 27 -58 c15 -31 50 -81 78 -111 177 -187 474 -107 553 150 15 50 17
143 17 982 0 985 1 961 -47 1061 -25 54 -106 126 -169 150 -57 22 -154 27
-204 12z"/>
<path d="M5090 4563 c-101 -17 -188 -74 -235 -154 -68 -117 -66 -80 -63 -960
l3 -794 32 -67 c38 -80 113 -160 181 -191 72 -33 189 -31 262 5 66 33 134 96
162 152 46 91 47 107 48 915 0 808 -1 825 -47 916 -42 81 -125 145 -220 170
-57 15 -75 16 -123 8z"/>
<path d="M3787 3890 c-81 -25 -151 -82 -197 -159 -38 -62 -40 -98 -40 -583 0
-433 2 -480 18 -530 51 -154 208 -264 350 -244 111 15 221 98 270 204 l27 57
0 505 0 505 -33 65 c-52 104 -103 150 -203 181 -74 23 -116 23 -192 -1z"/>
<path d="M2550 3311 c-87 -27 -174 -104 -213 -189 -20 -44 -22 -63 -22 -267 0
-206 1 -223 22 -268 86 -186 283 -265 448 -180 94 47 162 134 189 240 22 83
22 336 1 418 -29 110 -127 218 -223 245 -42 11 -165 12 -202 1z"/>
</g>
</svg>
